<?xml version="1.0" standalone="no"?>
<!DOCTYPE svg PUBLIC "-//W3C//DTD SVG 20010904//EN"
 "http://www.w3.org/TR/2001/REC-SVG-20010904/DTD/svg10.dtd">
<svg version="1.0" xmlns="http://www.w3.org/2000/svg"
 width="512.000000pt" height="512.000000pt" viewBox="0 0 512.000000 512.000000"
 preserveAspectRatio="xMidYMid meet">

<g transform="translate(0.000000,512.000000) scale(0.100000,-0.100000)"
fill="#000000" stroke="none">
<path d="M2315 5109 c-798 -81 -1501 -518 -1927 -1196 -487 -774 -516 -1777
-75 -2578 119 -218 267 -413 449 -592 406 -402 895 -641 1483 -725 117 -16
512 -17 630 0 629 88 1152 360 1576 819 350 380 573 863 651 1408 20 139 17
503 -6 660 -21 155 -80 393 -131 531 -45 123 -167 374 -231 474 -145 228 -366
478 -564 637 -366 295 -778 475 -1250 548 -125 19 -477 28 -605 14z m585 -184
c845 -127 1560 -689 1874 -1473 96 -237 140 -430 171 -744 l5 -58 -644 0 -643
0 -7 65 c-14 137 -81 317 -170 454 -55 86 -177 215 -265 282 -180 135 -433
219 -661 219 -490 0 -927 -330 -1064 -804 -14 -47 -28 -116 -32 -151 l-7 -65
-643 0 -644 0 5 58 c31 314 75 507 171 744 217 541 635 991 1159 1248 284 139
540 210 880 244 83 8 414 -4 515 -19z m-213 -1436 c108 -14 257 -67 356 -125
110 -66 255 -211 321 -321 94 -160 145 -369 132 -542 -32 -421 -318 -755 -734
-858 -92 -23 -312 -23 -404 0 -282 69 -514 252 -640 502 -74 145 -109 349 -90
514 26 226 122 421 280 573 213 205 490 296 779 257z m-1223 -1084 c14 -138
81 -316 171 -457 68 -106 239 -270 350 -335 294 -174 623 -209 942 -99 273 94
515 313 639 580 42 92 82 228 90 311 l7 65 644 0 644 0 -5 -42 c-3 -24 -8 -74
-12 -113 -10 -113 -42 -281 -79 -410 -184 -647 -636 -1188 -1240 -1485 -173
-85 -300 -132 -470 -175 -216 -54 -342 -69 -585 -69 -238 0 -354 13 -570 66
-737 179 -1361 720 -1644 1426 -96 237 -140 430 -171 745 l-5 57 644 0 643 0
7 -65z"/>
<path d="M1815 4650 c-129 -46 -380 -169 -418 -204 -38 -35 -38 -96 -1 -125
38 -30 74 -26 145 15 98 58 235 119 354 160 61 20 118 44 127 52 25 21 32 66
14 100 -28 55 -71 55 -221 2z"/>
<path d="M910 4042 c-82 -91 -198 -245 -236 -315 -34 -64 -26 -104 28 -130 55
-27 80 -10 163 110 38 56 104 141 145 189 41 47 81 98 88 111 29 52 -13 113
-77 113 -37 0 -45 -6 -111 -78z"/>
<path d="M2425 3315 c-399 -73 -679 -452 -626 -847 47 -355 315 -622 671 -670
70 -9 110 -9 180 0 355 48 622 312 671 666 23 161 -19 352 -107 499 -49 79
-171 202 -250 250 -164 99 -358 136 -539 102z m296 -181 c199 -59 355 -216
415 -419 24 -81 24 -229 0 -310 -61 -206 -215 -360 -421 -421 -81 -24 -229
-24 -310 0 -291 86 -480 371 -436 655 41 261 238 465 494 511 67 12 189 4 258
-16z"/>
<path d="M2498 2806 c-99 -27 -165 -96 -187 -198 -24 -106 32 -221 132 -272
238 -121 473 148 324 371 -55 82 -173 125 -269 99z m119 -188 c51 -48 15 -138
-56 -138 -47 0 -81 32 -81 79 0 72 84 109 137 59z"/>
<path d="M4350 1527 c-14 -7 -56 -58 -95 -114 -128 -184 -267 -335 -424 -458
-60 -47 -78 -77 -72 -120 3 -29 48 -65 81 -65 91 0 500 422 607 626 24 47 26
54 13 84 -9 21 -25 37 -46 46 -40 17 -33 17 -64 1z"/>
</g>
</svg>
